# xmcd
#
# Track frame offsets:
#	150
#	19226
#	40210
#	59914
#	80039
#	95830
#	117356
#	137160
#	156580
#	175487
#	187897
#
# Disc length: 2749 seconds
#
# Revision: 2
# Processed by: cddbd v1.4PL0 Copyright (c) Steve Scherf et al.
# Submitted via: EasyCDDAExtractor 5.0.6
#
DISCID=a50abb0b
DTITLE=이소라 - Sora's 5 Diary
DYEAR=2002
DGENRE=Pop
TTITLE0=안녕
TTITLE1=Sharry
TTITLE2=너에게
TTITLE3=첫사랑
TTITLE4=데이트
TTITLE5=외톨이
TTITLE6=겨울, 이별
TTITLE7=나를 사랑하지 않는 그대에게
TTITLE8=순수의 시절
TTITLE9=생일 축하해요
TTITLE10=My Nimph
EXTD=
EXTT0=
EXTT1=
EXTT2=
EXTT3=
EXTT4=
EXTT5=
EXTT6=
EXTT7=
EXTT8=
EXTT9=
EXTT10=
PLAYORDER=
